PathFileType	4	(X/Y/Z)	/Users/itak/Documents/Research/Walk-IL/dataset/trc/00308_00010.trc
DataRate	CameraRate	NumFrames	NumMarkers	Units	OrigDataRate	OrigDataStartFrame	OrigNumFrames
100.000000	100.000000	4	53	mm	100.000000	0	495
Frame#	Time	RPSI			LPSI			L3			STRN			T10			C7			CLAV			RBAK			LBAK			LSHO			LUPA			LAEL			LAOL			LWTS			LWPS			LFRA			LIFD			LHPS			LHTS			RSHO			RUPA			RAEL			RAOL			RWTS			RWPS			RFRA			RIFD			RHTS			RHPS			RBHD			LFHD			RFHD			LBHD			LHIP			RHIP			RASI			LASI			LKNE			LTHI			LANK			LTIP			LTOE			LMT1			LMT5			LHEE			RKNE			RTHI			RANK			RTIP			RTOE			RMT1			RMT5			RHEE			
		X1	Y1	Z1	X2	Y2	Z2	X3	Y3	Z3	X4	Y4	Z4	X5	Y5	Z5	X6	Y6	Z6	X7	Y7	Z7	X8	Y8	Z8	X9	Y9	Z9	X10	Y10	Z10	X11	Y11	Z11	X12	Y12	Z12	X13	Y13	Z13	X14	Y14	Z14	X15	Y15	Z15	X16	Y16	Z16	X17	Y17	Z17	X18	Y18	Z18	X19	Y19	Z19	X20	Y20	Z20	X21	Y21	Z21	X22	Y22	Z22	X23	Y23	Z23	X24	Y24	Z24	X25	Y25	Z25	X26	Y26	Z26	X27	Y27	Z27	X28	Y28	Z28	X29	Y29	Z29	X30	Y30	Z30	X31	Y31	Z31	X32	Y32	Z32	X33	Y33	Z33	X34	Y34	Z34	X35	Y35	Z35	X36	Y36	Z36	X37	Y37	Z37	X38	Y38	Z38	X39	Y39	Z39	X40	Y40	Z40	X41	Y41	Z41	X42	Y42	Z42	X43	Y43	Z43	X44	Y44	Z44	X45	Y45	Z45	X46	Y46	Z46	X47	Y47	Z47	X48	Y48	Z48	X49	Y49	Z49	X50	Y50	Z50	X51	Y51	Z51	X52	Y52	Z52	X53	Y53	Z53	

1	0	-1155.970703125	1011.569152832031	-454.0732116699219	-1155.784790039062	1002.006042480469	-628.8296508789062	-1136.154174804688	1075.022705078125	-544.4456176757812	-893.7776489257812	1255.667358398438	-554.3314819335938	-1154.124755859375	1179.2705078125	-544.2479858398438	-1123.01513671875	1427.096801757812	-563.7705078125	-959.5313720703125	1354.9189453125	-558.34130859375	-1164.88134765625	1287.331420898438	-484.8376770019531	-1138.355102539062	1388.364135742188	-667.0985717773438	-1049.7431640625	1399.854614257812	-722.1928100585938	-1069.17333984375	1279.354248046875	-794.2369995117188	-1039.985473632812	1075.830688476562	-803.4002075195312	-1100.73388671875	1058.604125976562	-744.4922485351562	-941.2490234375	861.4658203125	-740.8175659179688	-969.1233520507812	845.6258544921875	-806.6525268554688	-1014.068359375	973.2361450195312	-807.8228759765625	-923.2546997070312	677.4066162109375	-738.12890625	-956.0125732421875	757.5902099609375	-801.3260498046875	-900.3800659179688	770.7679443359375	-758.8641967773438	-1052.065185546875	1410.447387695312	-404.9188537597656	-1053.408935546875	1351.322021484375	-337.1928100585938	-1028.476928710938	1082.907348632812	-290.8271484375	-1073.834228515625	1073.650268554688	-374.1183471679688	-925.948974609375	865.2560424804688	-366.789306640625	-952.5488891601562	857.0547485351562	-286.1351928710938	-997.218017578125	1017.14404296875	-285.0507202148438	-912.10595703125	679.8741455078125	-373.6043090820312	-888.3416748046875	750.9984130859375	-359.0284118652344	-924.1608276367188	747.2021484375	-297.1726379394531	-1109.354736328125	1592.272094726562	-502.6052856445312	-923.9244384765625	1636.763427734375	-597.5159912109375	-938.274169921875	1633.50439453125	-505.1480712890625	-1086.20703125	1586.776977539062	-646.7662353515625	-1087.466674804688	951.8836059570312	-724.027099609375	-1055.226318359375	961.7150268554688	-350.0724182128906	-936.157470703125	962.5357055664062	-422.4138793945312	-948.3125	959.1133422851562	-674.135009765625	-1034.529541015625	485.2553405761719	-694.1029052734375	-1037.081420898438	628.2326049804688	-715.0475463867188	-1132.967163085938	48.11236953735352	-677.6923828125	-1092.451049804688	264.0986022949219	-695.7485961914062	-924.4515991210938	39.93231201171875	-628.5146484375	-953.036376953125	66.0867919921875	-540.0391845703125	-1011.231323242188	42.27003479003906	-696.7588500976562	-1176.560668945312	43.7404899597168	-616.2643432617188	-1038.214111328125	486.0499267578125	-385.6458129882812	-997.7096557617188	747.148193359375	-357.0101013183594	-1109.625732421875	45.72536087036133	-410.0733642578125	-1035.869384765625	363.9916076660156	-397.7048645019531	-915.6695556640625	46.154541015625	-466.6589660644531	-974.3006591796875	42.73880767822266	-504.9577026367188	-1004.924133300781	37.6874885559082	-390.306396484375	-1162.946899414062	39.27013397216797	-457.8460693359375	
2	0.01	-1155.853149414062	1011.614562988281	-453.9772338867188	-1155.776489257812	1002.058349609375	-628.73828125	-1136.028442382812	1075.027221679688	-544.3357543945312	-893.6210327148438	1255.616455078125	-554.24462890625	-1153.993408203125	1179.296875	-544.1495361328125	-1122.7890625	1427.115234375	-563.7166137695312	-959.4114990234375	1354.859985351562	-558.2827758789062	-1164.697021484375	1287.353881835938	-484.7795715332031	-1138.122802734375	1388.355102539062	-667.0443115234375	-1049.542846679688	1399.831909179688	-722.1502685546875	-1068.993286132812	1279.315551757812	-794.1742553710938	-1040.00634765625	1075.759887695312	-803.330078125	-1100.7099609375	1058.628540039062	-744.3779296875	-941.5894165039062	861.25390625	-740.8181762695312	-969.7780151367188	845.4041748046875	-806.672119140625	-1014.235046386719	973.121826171875	-807.778076171875	-924.2530517578125	677.0055541992188	-738.183349609375	-956.8314208984375	757.286865234375	-801.358154296875	-903.6658325195312	768.8346557617188	-758.0691528320312	-1051.944458007812	1410.438354492188	-404.8899841308594	-1053.281005859375	1351.336059570312	-337.1548767089844	-1028.491333007812	1082.90234375	-290.7823791503906	-1073.71875	1073.63916015625	-374.1018981933594	-925.9271240234375	865.2553100585938	-366.6703796386719	-952.6054077148438	857.0233764648438	-286.0399169921875	-997.2090454101562	1017.119384765625	-284.9651794433594	-912.1167602539062	679.883544921875	-373.5107421875	-888.36669921875	750.9968872070312	-358.9530334472656	-924.2008666992188	747.1755981445312	-297.0663757324219	-1109.068359375	1592.292114257812	-502.6198120117188	-923.6222534179688	1636.663208007812	-597.4943237304688	-937.9406127929688	1633.422485351562	-505.1727294921875	-1085.913208007812	1586.783203125	-646.7472534179688	-1087.39794921875	951.90576171875	-723.931884765625	-1055.026000976562	961.716552734375	-349.9872741699219	-935.9738159179688	962.4833984375	-422.3614501953125	-948.2947387695312	959.0775146484375	-674.11767578125	-1034.614013671875	485.2734069824219	-694.0707397460938	-1037.056762695312	628.2131958007812	-714.9671020507812	-1132.972045898438	48.11426544189453	-677.6881713867188	-1092.503540039062	264.1056518554688	-695.730712890625	-924.453125	39.93305587768555	-628.5148315429688	-961.2764282226562	59.44770812988281	-549.200439453125	-1011.226257324219	42.26880264282227	-696.758544921875	-1176.563232421875	43.73019409179688	-616.2589111328125	-1038.463500976562	486.0578918457031	-385.5777282714844	-997.816650390625	747.2117309570312	-356.7696228027344	-1109.587524414062	45.69111251831055	-410.037841796875	-1036.032958984375	364.041748046875	-397.6439819335938	-915.671142578125	46.16484832763672	-466.6571655273438	-974.3045043945312	42.74087142944336	-504.9569091796875	-1004.925476074219	37.68417739868164	-390.3020324707031	-1162.928344726562	39.25545501708984	-457.8306274414062	
3	0.02	-1155.695922851562	1011.68359375	-453.861328125	-1155.76171875	1002.134033203125	-628.6270141601562	-1135.85400390625	1075.034790039062	-544.1986694335938	-893.4248657226562	1255.55029296875	-554.1460571289062	-1153.820678710938	1179.3310546875	-544.0318603515625	-1122.490112304688	1427.141479492188	-563.6502685546875	-959.2391357421875	1354.794555664062	-558.218017578125	-1164.463256835938	1287.384399414062	-484.708984375	-1137.83935546875	1388.349365234375	-666.9818725585938	-1049.286376953125	1399.80517578125	-722.1000366210938	-1068.772583007812	1279.2724609375	-794.1007690429688	-1040.044921875	1075.676025390625	-803.251708984375	-1100.691284179688	1058.658813476562	-744.23486328125	-942.04248046875	860.9743041992188	-740.8471069335938	-970.6012573242188	845.1239624023438	-806.720947265625	-1014.467041015625	972.97998046875	-807.73779296875	-925.5913696289062	676.5213012695312	-738.2921142578125	-957.9115600585938	756.92529296875	-801.4288330078125	-906.9823608398438	766.8973388671875	-757.37109375	-1051.772338867188	1410.429321289062	-404.8529663085938	-1053.10986328125	1351.352783203125	-337.1085205078125	-1028.4990234375	1082.894287109375	-290.7322692871094	-1073.555297851562	1073.625732421875	-374.0980224609375	-925.9246215820312	865.2440795898438	-366.52978515625	-952.672119140625	856.9833374023438	-285.9291687011719	-997.1970825195312	1017.0888671875	-284.8671264648438	-912.151123046875	679.887451171875	-373.4024047851562	-888.411376953125	750.9793090820312	-358.858642578125	-924.2634887695312	747.1343994140625	-296.943115234375	-1108.691772460938	1592.314086914062	-502.6339416503906	-923.2373046875	1636.546020507812	-597.474853515625	-937.522705078125	1633.328369140625	-505.2071533203125	-1085.553466796875	1586.788818359375	-646.7260131835938	-1087.314331054688	951.9364013671875	-723.8196411132812	-1054.789306640625	961.7213134765625	-349.8863830566406	-935.7509765625	962.41015625	-422.2977905273438	-948.2747802734375	959.0330810546875	-674.094482421875	-1034.718994140625	485.29541015625	-694.0342407226562	-1037.013061523438	628.184326171875	-714.8699340820312	-1132.977416992188	48.11564636230469	-677.6823120117188	-1092.569091796875	264.1128540039062	-695.7091064453125	-924.4548950195312	39.93378067016602	-628.513671875	-970.1619262695312	52.29011535644531	-559.0673828125	-1011.223205566406	42.26967620849609	-696.7581176757812	-1176.565063476562	43.71558380126953	-616.2517700195312	-1038.782470703125	486.064697265625	-385.4908752441406	-997.9264526367188	747.25537109375	-356.5069580078125	-1109.552612304688	45.65650177001953	-410.0021362304688	-1036.253784179688	364.1022033691406	-397.573974609375	-915.6741943359375	46.17617797851562	-466.6533813476562	-974.3095703125	42.74423980712891	-504.9547729492188	-1004.927734375	37.67934036254883	-390.294189453125	-1162.911865234375	39.23980331420898	-457.81298828125	
4	0.03	-1155.501342773438	1011.779418945312	-453.7322082519531	-1155.735107421875	1002.233642578125	-628.5022583007812	-1135.63134765625	1075.046264648438	-544.04150390625	-893.1969604492188	1255.470092773438	-554.0457153320312	-1153.6083984375	1179.372192382812	-543.9024047851562	-1122.125854492188	1427.17578125	-563.5753173828125	-959.0150756835938	1354.728637695312	-558.1549682617188	-1164.189453125	1287.422973632812	-484.630615234375	-1137.5185546875	1388.35009765625	-666.9165649414062	-1048.982788085938	1399.7763671875	-722.0460205078125	-1068.523071289062	1279.229248046875	-794.0226440429688	-1040.106079101562	1075.584594726562	-803.1726684570312	-1100.683837890625	1058.6943359375	-744.0695190429688	-942.6048583984375	860.6337890625	-740.9209594726562	-971.5596923828125	844.7972412109375	-806.8082275390625	-1014.769409179688	972.8181762695312	-807.712158203125	-927.2198486328125	675.9766235351562	-738.4684448242188	-959.2293090820312	756.5277099609375	-801.5502319335938	-910.0120239257812	765.1539306640625	-756.8762817382812	-1051.544311523438	1410.422241210938	-404.8092956542969	-1052.897094726562	1351.37060546875	-337.0566101074219	-1028.492919921875	1082.8828125	-290.6813659667969	-1073.342651367188	1073.611694335938	-374.1141357421875	-925.9503173828125	865.218017578125	-366.3768920898438	-952.744140625	856.9362182617188	-285.8118591308594	-997.18115234375	1017.053894042969	-284.7652282714844	-912.2160034179688	679.8823852539062	-373.2886962890625	-888.4833374023438	750.9364013671875	-358.74853515625	-924.3517456054688	747.0763549804688	-296.8122253417969	-1108.23388671875	1592.336547851562	-502.64599609375	-922.7802734375	1636.42041015625	-597.46337890625	-937.038818359375	1633.231079101562	-505.2510681152344	-1085.145751953125	1586.793090820312	-646.7061767578125	-1087.21728515625	951.9747314453125	-723.6981811523438	-1054.533447265625	961.7303466796875	-349.7780151367188	-935.5036010742188	962.3147583007812	-422.2269592285156	-948.2531127929688	958.9806518554688	-674.065185546875	-1034.838623046875	485.3192749023438	-693.9960327148438	-1036.952758789062	628.1473999023438	-714.7631225585938	-1132.98291015625	48.11608505249023	-677.6754760742188	-1092.643920898438	264.1192932128906	-695.6845092773438	-924.4570922851562	39.93456649780273	-628.5108642578125	-978.4173583984375	45.64110565185547	-568.2258911132812	-1011.223205566406	42.27345275878906	-696.75732421875	-1176.566284179688	43.69700622558594	-616.2437133789062	-1039.159545898438	486.0685424804688	-385.3901672363281	-998.01708984375	747.2568359375	-356.2576904296875	-1109.525390625	45.62508010864258	-409.9703674316406	-1036.532348632812	364.1683959960938	-397.5007934570312	-915.6795654296875	46.18752670288086	-466.6473388671875	-974.3155517578125	42.74916839599609	-504.9508666992188	-1004.930908203125	37.67253112792969	-390.282470703125	-1162.90185546875	39.22555541992188	-457.79541015625	
